<svg id="Layer_1" data-name="Layer 1" xmlns="http://www.w3.org/2000/svg" viewBox="0 0 1289.03 622.77"><defs><style>.cls-1{font-size:194.49px;}.cls-1,.cls-4{fill:#0b1972;font-family:AVROVARegular, AVROVA;}.cls-2{letter-spacing:-0.1em;}.cls-3{letter-spacing:-0.02em;}.cls-4{font-size:97.25px;}.cls-5{letter-spacing:-0.03em;}.cls-6{fill:#f8ab43;}.cls-7{fill:none;stroke:#000;stroke-miterlimit:10;}.cls-8{font-size:36px;font-family:SFProDisplay-Regular, SF Pro Display;}</style></defs><text class="cls-1" transform="translate(143.95 322.55)">BIS</text><text class="cls-1" transform="translate(569.06 322.73)"><tspan class="cls-2">A</tspan><tspan class="cls-3" x="94.33" y="0">Y</tspan><tspan x="211.22" y="0">S</tspan></text><text class="cls-4" transform="translate(484.63 410.34)">Consulting</text><text class="cls-4" transform="translate(905.39 420.74)">G<tspan class="cls-5" x="63.7" y="0">r</tspan><tspan x="98.8" y="0">oup</tspan></text><polygon class="cls-6" points="411.32 300.52 424.82 300.52 428.76 290.13 450.96 353.16 455.62 365.34 496.44 248.59 546.58 326.3 604.59 160.14 587.4 160.14 584.53 160.14 545.86 291.57 496.08 210.63 458.12 320.22 427.69 248.24 411.32 300.52"/><rect class="cls-7" x="19.48" y="24" width="136.14" height="136.14"/><rect class="cls-7" x="19.48" y="160.14" width="136.14" height="286.23"/><rect class="cls-7" x="1134.74" y="160.14" width="136.14" height="286.23"/><rect class="cls-7" x="155.62" y="160.14" width="979.12" height="286.23"/><text class="cls-8" transform="translate(79.56 101.59)">x</text><rect class="cls-7" x="19.48" y="446.37" width="136.14" height="136.14"/><text class="cls-8" transform="translate(79.56 523.97)">x</text><rect class="cls-7" x="1134.74" y="24" width="136.14" height="136.14"/><rect class="cls-7" x="155.62" y="24" width="979.12" height="136.14"/><rect class="cls-7" x="155.62" y="446.37" width="979.12" height="136.14"/><text class="cls-8" transform="translate(1194.82 101.59)">x</text><rect class="cls-7" x="1134.74" y="446.37" width="136.14" height="136.14"/><text class="cls-8" transform="translate(1194.82 523.97)">x</text></svg>