<svg id="Layer_1" data-name="Layer 1" xmlns="http://www.w3.org/2000/svg" viewBox="0 0 1040.52 517.93"><defs><style>.cls-1{font-size:194.49px;fill:#0b1972;font-family:AVROVARegular, AVROVA;}.cls-2{letter-spacing:-0.1em;}.cls-3{letter-spacing:-0.02em;}.cls-4{fill:#f8ab43;}.cls-5{fill:none;stroke:#000;stroke-miterlimit:10;}.cls-6{font-size:36px;font-family:SFProDisplay-Regular, SF Pro Display;}</style></defs><text class="cls-1" transform="translate(145.11 330.44)">BIS</text><text class="cls-1" transform="translate(570.22 330.62)"><tspan class="cls-2">A</tspan><tspan class="cls-3" x="94.33" y="0">Y</tspan><tspan x="211.22" y="0">S</tspan></text><polygon class="cls-4" points="412.48 308.41 425.98 308.41 429.92 298.02 452.13 361.05 456.78 373.23 497.61 256.48 547.74 334.19 605.75 168.03 588.56 168.03 585.7 168.03 547.02 299.46 497.25 218.52 459.29 328.11 428.85 256.13 412.48 308.41"/><rect class="cls-5" x="20.64" y="31.89" width="136.14" height="136.14"/><rect class="cls-5" x="20.64" y="168.03" width="136.14" height="205.2"/><rect class="cls-5" x="874.56" y="168.27" width="136.14" height="205.2"/><rect class="cls-5" x="156.78" y="31.89" width="717.78" height="136.14"/><rect class="cls-5" x="156.78" y="373.23" width="717.78" height="136.14"/><rect class="cls-5" x="20.64" y="373.23" width="136.14" height="136.14"/><rect class="cls-5" x="874.56" y="31.89" width="136.14" height="136.14"/><rect class="cls-5" x="874.56" y="373.23" width="136.14" height="136.14"/><rect class="cls-5" x="156.78" y="168.03" width="717.78" height="205.2"/><text class="cls-6" transform="translate(80.73 109.48)">x</text><text class="cls-6" transform="translate(80.73 450.82)">x</text><text class="cls-6" transform="translate(942.64 109.48)">x</text><text class="cls-6" transform="translate(942.64 450.82)">x</text></svg>