<svg id="Layer_1" data-name="Layer 1" xmlns="http://www.w3.org/2000/svg" viewBox="0 0 1720.37 576"><defs><style>.cls-1{font-size:194.49px;}.cls-1,.cls-4{fill:#0b1972;font-family:AVROVARegular, AVROVA;}.cls-2{letter-spacing:-0.1em;}.cls-3{letter-spacing:-0.02em;}.cls-4{font-size:97.25px;}.cls-5{letter-spacing:-0.03em;}.cls-6{fill:#f8ab43;}.cls-7{fill:none;stroke:#000;stroke-miterlimit:10;}.cls-8{font-size:36px;font-family:SFProDisplay-Regular, SF Pro Display;}</style></defs><text class="cls-1" transform="translate(146.31 340.38)">BIS</text><text class="cls-1" transform="translate(571.42 340.56)"><tspan class="cls-2">A</tspan><tspan class="cls-3" x="94.33" y="0">Y</tspan><tspan x="211.22" y="0">S</tspan></text><text class="cls-4" transform="translate(908.61 336.86)">Consulting</text><text class="cls-4" transform="translate(1321.98 336.86)">G<tspan class="cls-5" x="63.7" y="0">r</tspan><tspan x="98.8" y="0">oup</tspan></text><polygon class="cls-6" points="413.68 318.35 427.18 318.35 431.12 307.97 453.32 370.99 457.98 383.17 498.81 266.43 548.94 344.13 606.95 177.97 589.76 177.97 586.9 177.97 548.22 309.4 498.45 228.47 460.49 338.05 430.05 266.07 413.68 318.35"/><rect class="cls-7" x="21.84" y="41.83" width="136.14" height="136.14"/><rect class="cls-7" x="157.98" y="41.83" width="1393.35" height="136.14"/><rect class="cls-7" x="157.98" y="383.17" width="1393.35" height="136.14"/><rect class="cls-7" x="157.98" y="177.97" width="1393.35" height="205.2"/><text class="cls-8" transform="translate(81.93 119.43)">x</text><rect class="cls-7" x="21.84" y="383.93" width="136.14" height="136.14"/><text class="cls-8" transform="translate(81.93 461.53)">x</text><rect class="cls-7" x="1551.33" y="41.83" width="136.14" height="136.14"/><text class="cls-8" transform="translate(1611.41 119.43)">x</text><rect class="cls-7" x="1551.33" y="383.17" width="136.14" height="136.14"/><rect class="cls-7" x="1551.33" y="177.97" width="136.14" height="205.2"/><rect class="cls-7" x="21.84" y="178.21" width="136.14" height="205.2"/><text class="cls-8" transform="translate(1611.41 460.76)">x</text></svg>