<svg id="Layer_1" data-name="Layer 1" xmlns="http://www.w3.org/2000/svg" viewBox="0 0 501.68 510.93"><defs><style>.cls-1{fill:#f8ab43;}.cls-2{fill:none;stroke:#000;stroke-miterlimit:10;}.cls-3{font-size:36px;font-family:SFProDisplay-Regular, SF Pro Display;}</style></defs><polygon class="cls-1" points="153.37 288.95 166.88 288.95 170.81 278.57 193.02 341.6 197.67 353.77 238.5 237.03 288.63 314.74 346.64 148.58 329.45 148.58 326.59 148.58 287.92 280 238.14 199.07 200.18 308.65 169.74 236.67 153.37 288.95"/><rect class="cls-2" x="153.37" y="148.58" width="193.27" height="205.2"/><rect class="cls-2" x="17.23" y="12.43" width="136.14" height="136.14"/><rect class="cls-2" x="153.37" y="12.43" width="193.27" height="136.14"/><rect class="cls-2" x="153.37" y="353.77" width="193.27" height="136.14"/><rect class="cls-2" x="346.64" y="148.58" width="136.14" height="205.2"/><rect class="cls-2" x="17.23" y="148.58" width="136.14" height="205.2"/><text class="cls-3" transform="translate(77.74 90.03)">x</text><rect class="cls-2" x="17.23" y="353.77" width="136.14" height="136.14"/><text class="cls-3" transform="translate(77.74 431.37)">x</text><rect class="cls-2" x="346.64" y="12.43" width="136.14" height="136.14"/><text class="cls-3" transform="translate(407.15 90.03)">x</text><rect class="cls-2" x="346.64" y="353.77" width="136.14" height="136.14"/><text class="cls-3" transform="translate(407.15 431.37)">x</text></svg>